<?xml version="1.0" encoding="UTF-8"?>
<svg version="1.1" xmlns="http://www.w3.org/2000/svg" width="109" height="57">
<path d="M0 0 C35.97 0 71.94 0 109 0 C109 18.81 109 37.62 109 57 C73.03 57 37.06 57 0 57 C0 38.19 0 19.38 0 0 Z " fill="#181715" transform="translate(0,0)"/>
<path d="M0 0 C3.5 0.25 3.5 0.25 5.5 2.25 C5.83 1.59 6.16 0.93 6.5 0.25 C10.13 0.25 13.76 0.25 17.5 0.25 C18.07911351 5.60679997 16.40702587 9.67848302 14.47265625 14.56640625 C13.54485635 17.1262397 12.96023108 19.57097065 12.5 22.25 C14.15 22.25 15.8 22.25 17.5 22.25 C17.5 23.9 17.5 25.55 17.5 27.25 C15.20839681 27.27692484 12.91670454 27.29636124 10.625 27.3125 C9.34882812 27.32410156 8.07265625 27.33570312 6.7578125 27.34765625 C3.5 27.25 3.5 27.25 1.5 26.25 C-0.50800456 26.53112064 -2.51014051 26.86067967 -4.5 27.25 C-6.83991708 23.59387956 -6.87437949 20.51792624 -6.5 16.25 C-5.3125 13.3125 -5.3125 13.3125 -3.5 11.25 C-0.8125 10.9375 -0.8125 10.9375 1.5 11.25 C1.5 8.94 1.5 6.63 1.5 4.25 C0.51 4.745 0.51 4.745 -0.5 5.25 C-0.83 6.24 -1.16 7.23 -1.5 8.25 C-2.82 8.25 -4.14 8.25 -5.5 8.25 C-5.625 5.375 -5.625 5.375 -5.5 2.25 C-3.5 0.25 -3.5 0.25 0 0 Z " fill="#F3F3F3" transform="translate(73.5,16.75)"/>
<path d="M0 0 C1.99954746 -0.04254356 4.00041636 -0.04080783 6 0 C7.99616554 1.99616554 7.40983427 5.81701963 7.5625 8.5625 C7.60568359 9.27341797 7.64886719 9.98433594 7.69335938 10.71679688 C7.79971777 12.47761912 7.90038846 14.2387832 8 16 C8.66 16 9.32 16 10 16 C9.95875 14.845 9.9175 13.69 9.875 12.5 C9.85912567 8.05518699 10.78206895 4.26275869 12 0 C13.98 0 15.96 0 18 0 C18.90289857 11.68931188 19.11465457 23.27975496 19 35 C17.35 35 15.7 35 14 35 C13.67 29.06 13.34 23.12 13 17 C12.34 20.96 11.68 24.92 11 29 C9.68 29 8.36 29 7 29 C6.34 24.71 5.68 20.42 5 16 C4.67 22.27 4.34 28.54 4 35 C2.35 35 0.7 35 -1 35 C-1.10902914 23.28188331 -1.09908609 11.6777897 0 0 Z " fill="#EDEDED" transform="translate(19,9)"/>
<path d="M0 0 C1.65 0 3.3 0 5 0 C5 7.26 5 14.52 5 22 C5.66 22 6.32 22 7 22 C7 14.74 7 7.48 7 0 C8.98 0 10.96 0 13 0 C13 8.91 13 17.82 13 27 C11.68 27 10.36 27 9 27 C9 26.34 9 25.68 9 25 C8.01 25.66 7.02 26.32 6 27 C1.45945946 26.45945946 1.45945946 26.45945946 0 25 C-0.08737645 23.14630389 -0.10698153 21.28932459 -0.09765625 19.43359375 C-0.09443359 18.30888672 -0.09121094 17.18417969 -0.08789062 16.02539062 C-0.07951172 14.84138672 -0.07113281 13.65738281 -0.0625 12.4375 C-0.05798828 11.24962891 -0.05347656 10.06175781 -0.04882812 8.83789062 C-0.03699675 5.89187774 -0.02051287 2.94596319 0 0 Z " fill="#E9E9E8" transform="translate(40,17)"/>
<path d="M0 0 C2 2 2 2 2.22705078 4.52197266 C2.21134033 6.07730713 2.21134033 6.07730713 2.1953125 7.6640625 C2.18564453 9.34628906 2.18564453 9.34628906 2.17578125 11.0625 C2.15902344 12.238125 2.14226562 13.41375 2.125 14.625 C2.11597656 15.80835938 2.10695313 16.99171875 2.09765625 18.2109375 C2.07402812 21.14082523 2.04108514 24.0703134 2 27 C1.01 27 0.02 27 -1 27 C-1 26.34 -1 25.68 -1 25 C-1.99 25.66 -2.98 26.32 -4 27 C-8.54054054 26.45945946 -8.54054054 26.45945946 -10 25 C-10.15135944 23.2127943 -10.22175778 21.41838124 -10.25 19.625 C-10.28867187 18.15933594 -10.28867187 18.15933594 -10.328125 16.6640625 C-10 14 -10 14 -8.734375 12.1484375 C-7 11 -7 11 -3 11 C-3 8.69 -3 6.38 -3 4 C-3.66 4 -4.32 4 -5 4 C-5 5.65 -5 7.3 -5 9 C-6.65 9 -8.3 9 -10 9 C-10.35789474 3.63157895 -10.35789474 3.63157895 -8.9375 1.125 C-5.93267901 -0.61973477 -3.39189869 -0.30835443 0 0 Z " fill="#E9E8E8" transform="translate(64,17)"/>
<path d="M0 0 C2.97 0 5.94 0 9 0 C9.21544006 5.23115393 8.52370193 9.43785303 7 14.4375 C6.62875 15.67371094 6.2575 16.90992188 5.875 18.18359375 C5.58625 19.11300781 5.2975 20.04242188 5 21 C6.65 21 8.3 21 10 21 C10 22.65 10 24.3 10 26 C6.37 26 2.74 26 -1 26 C-1.36855661 20.15684205 -0.18853997 15.95005448 2 10.5625 C2.28617187 9.83095703 2.57234375 9.09941406 2.8671875 8.34570312 C3.56760423 6.55964046 4.28233811 4.77920344 5 3 C3.35 3 1.7 3 0 3 C0 2.01 0 1.02 0 0 Z " fill="#EFEFEF" transform="translate(81,18)"/>
<path d="M0 0 C0.66 0 1.32 0 2 0 C2 1.32 2 2.64 2 4 C3.32 4 4.64 4 6 4 C6.33 2.68 6.66 1.36 7 0 C7.66 0 8.32 0 9 0 C9 2.31 9 4.62 9 7 C8.030625 7.268125 7.06125 7.53625 6.0625 7.8125 C5.051875 8.204375 4.04125 8.59625 3 9 C1.82953565 12.51139306 2.0100187 15.28405549 2.16015625 18.94140625 C2 21 2 21 0 23 C0 15.41 0 7.82 0 0 Z " fill="#939291" transform="translate(66,21)"/>
<path d="M0 0 C0.66 0 1.32 0 2 0 C2 2.31 2 4.62 2 7 C0.02 7.33 -1.96 7.66 -4 8 C-4.33 11.63 -4.66 15.26 -5 19 C-5.33 19 -5.66 19 -6 19 C-6 13.72 -6 8.44 -6 3 C-5.67 3.66 -5.34 4.32 -5 5 C-3.35 5 -1.7 5 0 5 C0 3.35 0 1.7 0 0 Z " fill="#2E2D2B" transform="translate(59,21)"/>
<path d="M0 0 C1.65 0 3.3 0 5 0 C3.9318153 5.11365014 2.76892524 10.07227969 1 15 C0.67 15 0.34 15 0 15 C0 10.05 0 5.1 0 0 Z " fill="#1F1E1C" transform="translate(80,22)"/>
<path d="M0 0 C0.66 0 1.32 0 2 0 C2 2.31 2 4.62 2 7 C0.576875 7.4640625 0.576875 7.4640625 -0.875 7.9375 C-3.86080408 8.87394742 -3.86080408 8.87394742 -6 10 C-6 8.35 -6 6.7 -6 5 C-4.02 5 -2.04 5 0 5 C0 3.35 0 1.7 0 0 Z " fill="#292826" transform="translate(73,21)"/>
<path d="M0 0 C0.66 0 1.32 0 2 0 C2 2.31 2 4.62 2 7 C1.01 7 0.02 7 -1 7 C-1.04254356 5.00045254 -1.04080783 2.99958364 -1 1 C-0.67 0.67 -0.34 0.34 0 0 Z " fill="#3D3C3A" transform="translate(73,32)"/>
</svg>
